<?xml version="1.0" encoding="UTF-8"?>
<svg id="Layer_1" data-name="Layer 1" xmlns="http://www.w3.org/2000/svg" viewBox="0 0 708.66 708.66">
  <defs>
    <style>
      .cls-1 {
        fill: #fff;
      }

      .cls-2 {
        fill: #5d53a3;
      }
    </style>
  </defs>
  <path class="cls-2" d="M181.32,280.1l-38.68,2.73,29.94,25.15,38.71-2.83-29.98-25.05ZM526.77,280.13l-30.18,25.02,38.64,2.8,29.91-25.12-38.37-2.7ZM353.89,116.73l-.07.2,18.98,46.53-18.92-46.73ZM339.43,165.12l14.53,36.42,14.67-35.78-14.84-36.42-14.36,35.78ZM475.55,493.91l-33.58-20.97,9.27,37.39,33.21,20.87-8.9-37.29ZM489.51,531.91l2.23,9.41h.03l.1.07-2.36-9.47ZM232.64,493.78l-9.27,37.39,33.58-20.97,8.9-37.29-33.21,20.87Z"/>
  <path class="cls-2" d="M354.33,56.71c-164.11,0-297.64,133.49-297.64,297.6s133.53,297.64,297.64,297.64,297.64-133.49,297.64-297.64S518.44,56.71,354.33,56.71ZM354.33,93.26c50.44,0,97.55,14.36,137.51,39.25l-84.37,116.57-33.72-83.32-.94-2.29-18.98-46.53-19.29,47.58-.24.61-34.16,84.4-84.74-116.16c40.26-25.39,87.91-40.09,138.92-40.09ZM353.96,201.53l-14.53-36.42,14.36-35.78,14.84,36.42-14.67,35.78ZM93.28,354.31c0-79.81,36.01-151.4,92.66-199.31l83.22,114.14-86.25,6.07h-.03l-52.23,3.71,40.36,33.92,70.24,59.04-140.17,45.79c-5.09-20.3-7.79-41.51-7.79-63.36ZM211.29,305.15l-38.71,2.83-29.94-25.15,38.68-2.73,29.98,25.05ZM112.43,452.44l136.7-44.68-20.64,83.02-12.58,50.61,119.91-74.79.27,148.16c-101.39-7.01-187.01-72.19-223.66-162.32ZM265.85,472.9l-8.9,37.29-33.58,20.97,9.27-37.39,33.21-20.87ZM353.89,412.21l-19.36,12.07-61.33,38.27,17.43-70.17,5.5-22.15-17.47-14.67-55.33-46.53,72.13-5.09,22.76-1.62,8.56-21.14,27.11-67,27.14,67,8.56,21.14,22.76,1.62,72.13,5.09-55.37,46.53-17.47,14.67,5.53,22.15,17.43,70.17-61.37-38.27-19.35-12.07ZM372.64,614.73l-.24-147.89,105.34,65.75,3.24,2.02,10.76,6.71-2.23-9.41-.17-.68-10.08-40.63-20.7-83.32,137.98,44.54c-36.55,90.43-122.33,155.85-223.89,162.9ZM441.97,472.94l33.58,20.97,8.9,37.29-33.21-20.87-9.27-37.39ZM466.92,371.54l69.9-58.74,40.36-33.89-51.96-3.67-87.06-6.14,83.32-115.15c57.39,47.91,93.94,119.94,93.94,200.36,0,21.61-2.63,42.62-7.62,62.72l-140.88-45.49ZM496.59,305.15l30.18-25.02,38.37,2.7-29.91,25.12-38.64-2.8Z"/>
  <g>
    <polygon class="cls-1" points="265.85 472.9 256.95 510.2 223.37 531.17 232.64 493.78 265.85 472.9"/>
    <g>
      <polygon class="cls-1" points="484.45 531.2 451.24 510.33 441.97 472.94 475.55 493.91 484.45 531.2"/>
      <path class="cls-2" d="M479.73,490.91l-.47-.3,10.08,40.63-9.61-40.33ZM491.74,541.32l-10.76-6.71,10.79,6.78v-.07h-.03Z"/>
    </g>
    <polygon class="cls-1" points="565.14 282.83 535.23 307.95 496.59 305.15 526.77 280.13 565.14 282.83"/>
    <polygon class="cls-1" points="211.29 305.15 172.59 307.98 142.64 282.83 181.32 280.1 211.29 305.15"/>
    <g>
      <polygon class="cls-1" points="368.63 165.76 353.96 201.53 339.43 165.12 353.79 129.34 368.63 165.76"/>
      <path class="cls-2" d="M353.72,116.73l-19.19,47.78,19.29-47.58-.1-.2Z"/>
    </g>
  </g>
</svg>